<svg xmlns="http://www.w3.org/2000/svg" viewBox="0 0 100 100" width="100" height="100">
  <!-- Pétalos de la flor -->
  <path d="M50,0 C60,20 75,25 90,20 C80,40 85,55 80,70 C65,65 50,75 50,90 C50,75 35,65 20,70 C15,55 20,40 10,20 C25,25 40,20 50,0 Z" fill="#E75A5A" />
  
  <!-- Centro de la flor -->
  <circle cx="50" cy="50" r="15" fill="#C13030" />
  
  <!-- Detalles del centro -->
  <circle cx="45" cy="45" r="3" fill="#FFFFFF" opacity="0.4" />
  <circle cx="55" cy="55" r="2" fill="#FFFFFF" opacity="0.3" />
  
  <!-- Líneas decorativas en los pétalos -->
  <path d="M50,10 L50,40" stroke="#C13030" stroke-width="1" opacity="0.5" />
  <path d="M50,60 L50,85" stroke="#C13030" stroke-width="1" opacity="0.5" />
  <path d="M10,30 L40,50" stroke="#C13030" stroke-width="1" opacity="0.5" />
  <path d="M60,50 L85,30" stroke="#C13030" stroke-width="1" opacity="0.5" />
  <path d="M25,75 L40,60" stroke="#C13030" stroke-width="1" opacity="0.5" />
  <path d="M60,60 L75,75" stroke="#C13030" stroke-width="1" opacity="0.5" />
</svg>