<svg xmlns="http://www.w3.org/2000/svg" viewBox="0 0 100 100" width="100" height="100">
  <!-- Pétalos de la flor -->
  <path d="M50,10 C60,20 70,20 80,10 C75,30 85,40 95,45 C75,50 75,60 80,75 C60,65 40,65 20,75 C25,60 25,50 5,45 C15,40 25,30 20,10 C30,20 40,20 50,10 Z" fill="#F8D0A0" />
  
  <!-- Centro de la flor -->
  <circle cx="50" cy="50" r="20" fill="#F5A623" />
  
  <!-- Detalles del centro -->
  <circle cx="45" cy="45" r="3" fill="#FFFFFF" opacity="0.5" />
  <circle cx="55" cy="55" r="2" fill="#FFFFFF" opacity="0.3" />
  
  <!-- Patrón de puntos en los pétalos -->
  <circle cx="30" cy="25" r="2" fill="#F5A623" opacity="0.7" />
  <circle cx="70" cy="25" r="2" fill="#F5A623" opacity="0.7" />
  <circle cx="25" cy="60" r="2" fill="#F5A623" opacity="0.7" />
  <circle cx="75" cy="60" r="2" fill="#F5A623" opacity="0.7" />
  <circle cx="50" cy="20" r="2" fill="#F5A623" opacity="0.7" />
  <circle cx="50" cy="80" r="2" fill="#F5A623" opacity="0.7" />
  <circle cx="20" cy="40" r="2" fill="#F5A623" opacity="0.7" />
  <circle cx="80" cy="40" r="2" fill="#F5A623" opacity="0.7" />
</svg>